<mxfile host="Electron" modified="2025-01-27T15:41:59.725Z" agent="Mozilla/5.0 (Macintosh; Intel Mac OS X 10_15_7) AppleWebKit/537.36 (KHTML, like Gecko) draw.io/24.5.1 Chrome/124.0.6367.207 Electron/30.0.6 Safari/537.36" etag="QsIcJyxKKkKVkmn0ZkIP" version="24.5.1" type="device">
  <diagram id="CNRvUmCUOl8FaEi8uVfI" name="growthbook">
    <mxGraphModel dx="1817" dy="526" grid="1" gridSize="10" guides="1" tooltips="1" connect="1" arrows="1" fold="1" page="0" pageScale="1" pageWidth="900" pageHeight="1600" background="none" math="0" shadow="0">
      <root>
        <mxCell id="0" />
        <mxCell id="1" parent="0" />
        <mxCell id="oHQJAUbpGCtsG2pMAWnH-35" value="" style="whiteSpace=wrap;html=1;fillColor=default;strokeColor=none;rounded=0;" parent="1" vertex="1">
          <mxGeometry x="-60" y="100" width="1180" height="430" as="geometry" />
        </mxCell>
        <mxCell id="oHQJAUbpGCtsG2pMAWnH-31" value="" style="whiteSpace=wrap;html=1;fillColor=default;dashed=1;strokeColor=#E3E3E3;" parent="1" vertex="1">
          <mxGeometry x="-38" y="130" width="1128" height="370" as="geometry" />
        </mxCell>
        <mxCell id="KcPOCeWXQUCBt0vuWGm0-9" value="" style="whiteSpace=wrap;html=1;fillColor=default;dashed=1;strokeColor=#E3E3E3;" parent="1" vertex="1">
          <mxGeometry x="184.5" y="180" width="853.5" height="280" as="geometry" />
        </mxCell>
        <mxCell id="KcPOCeWXQUCBt0vuWGm0-11" value="namespace" style="whiteSpace=wrap;html=1;fontSize=9;fillColor=none;fontColor=#333333;strokeColor=none;fontStyle=1;align=left;" parent="1" vertex="1">
          <mxGeometry x="184.5" y="160" width="80" height="20" as="geometry" />
        </mxCell>
        <mxCell id="KcPOCeWXQUCBt0vuWGm0-12" value="" style="whiteSpace=wrap;html=1;container=0;dashed=1;strokeColor=#E3E3E3;" parent="1" vertex="1">
          <mxGeometry x="212" y="210" width="188" height="200" as="geometry" />
        </mxCell>
        <mxCell id="FQWdSzfLES44VIhiBNn8-4" value="" style="whiteSpace=wrap;html=1;container=0;dashed=1;strokeColor=#E3E3E3;" parent="1" vertex="1">
          <mxGeometry x="510" y="280" width="490" height="130" as="geometry" />
        </mxCell>
        <mxCell id="FQWdSzfLES44VIhiBNn8-6" value="Feature Flags Specs" style="whiteSpace=wrap;html=1;fontSize=7;fillColor=none;strokeColor=none;fontColor=#333333;fontStyle=1;align=left;" parent="1" vertex="1">
          <mxGeometry x="510" y="267" width="91" height="12" as="geometry" />
        </mxCell>
        <mxCell id="oHQJAUbpGCtsG2pMAWnH-23" style="edgeStyle=orthogonalEdgeStyle;rounded=0;orthogonalLoop=1;jettySize=auto;html=1;entryX=0;entryY=0.5;entryDx=0;entryDy=0;" parent="1" source="FQWdSzfLES44VIhiBNn8-9" target="oHQJAUbpGCtsG2pMAWnH-16" edge="1">
          <mxGeometry relative="1" as="geometry" />
        </mxCell>
        <mxCell id="FQWdSzfLES44VIhiBNn8-9" value="FeatureFlagSource" style="whiteSpace=wrap;html=1;fontSize=12;fillColor=#d5e8d4;strokeColor=#82b366;" parent="1" vertex="1">
          <mxGeometry x="531" y="318.25" width="123" height="47" as="geometry" />
        </mxCell>
        <mxCell id="FQWdSzfLES44VIhiBNn8-21" style="edgeStyle=orthogonalEdgeStyle;rounded=0;orthogonalLoop=1;jettySize=auto;html=1;entryX=0;entryY=0.5;entryDx=0;entryDy=0;" parent="1" source="FQWdSzfLES44VIhiBNn8-14" target="FQWdSzfLES44VIhiBNn8-9" edge="1">
          <mxGeometry relative="1" as="geometry" />
        </mxCell>
        <mxCell id="oHQJAUbpGCtsG2pMAWnH-34" value="annotation" style="edgeLabel;html=1;align=center;verticalAlign=middle;resizable=0;points=[];" parent="FQWdSzfLES44VIhiBNn8-21" vertex="1" connectable="0">
          <mxGeometry x="-0.1942" y="-1" relative="1" as="geometry">
            <mxPoint x="5" y="-3" as="offset" />
          </mxGeometry>
        </mxCell>
        <mxCell id="FQWdSzfLES44VIhiBNn8-34" value="application" style="whiteSpace=wrap;html=1;fontSize=9;fillColor=none;fontColor=#333333;strokeColor=none;fontStyle=1;align=left;" parent="1" vertex="1">
          <mxGeometry x="212" y="190" width="80" height="20" as="geometry" />
        </mxCell>
        <mxCell id="FQWdSzfLES44VIhiBNn8-36" value="K8S Operator&lt;div&gt;(open feature)&lt;/div&gt;" style="whiteSpace=wrap;html=1;dashed=1;fillColor=#fff2cc;strokeColor=#d6b656;" parent="1" vertex="1">
          <mxGeometry y="295" width="120" height="50" as="geometry" />
        </mxCell>
        <mxCell id="oHQJAUbpGCtsG2pMAWnH-4" style="edgeStyle=orthogonalEdgeStyle;rounded=0;orthogonalLoop=1;jettySize=auto;html=1;entryX=0;entryY=0.5;entryDx=0;entryDy=0;" parent="1" source="oHQJAUbpGCtsG2pMAWnH-1" target="oHQJAUbpGCtsG2pMAWnH-2" edge="1">
          <mxGeometry relative="1" as="geometry" />
        </mxCell>
        <mxCell id="oHQJAUbpGCtsG2pMAWnH-5" style="edgeStyle=orthogonalEdgeStyle;rounded=0;orthogonalLoop=1;jettySize=auto;html=1;entryX=0;entryY=0.5;entryDx=0;entryDy=0;" parent="1" source="oHQJAUbpGCtsG2pMAWnH-1" target="oHQJAUbpGCtsG2pMAWnH-3" edge="1">
          <mxGeometry relative="1" as="geometry" />
        </mxCell>
        <mxCell id="oHQJAUbpGCtsG2pMAWnH-1" value="Diferentes Providers" style="whiteSpace=wrap;html=1;" parent="1" vertex="1">
          <mxGeometry x="281" y="670" width="120" height="60" as="geometry" />
        </mxCell>
        <mxCell id="oHQJAUbpGCtsG2pMAWnH-7" style="edgeStyle=orthogonalEdgeStyle;rounded=0;orthogonalLoop=1;jettySize=auto;html=1;" parent="1" source="oHQJAUbpGCtsG2pMAWnH-2" target="oHQJAUbpGCtsG2pMAWnH-6" edge="1">
          <mxGeometry relative="1" as="geometry" />
        </mxCell>
        <mxCell id="oHQJAUbpGCtsG2pMAWnH-2" value="Padrão plataforma" style="whiteSpace=wrap;html=1;" parent="1" vertex="1">
          <mxGeometry x="500" y="630" width="120" height="60" as="geometry" />
        </mxCell>
        <mxCell id="oHQJAUbpGCtsG2pMAWnH-9" style="edgeStyle=orthogonalEdgeStyle;rounded=0;orthogonalLoop=1;jettySize=auto;html=1;entryX=0;entryY=0.5;entryDx=0;entryDy=0;" parent="1" source="oHQJAUbpGCtsG2pMAWnH-3" target="oHQJAUbpGCtsG2pMAWnH-8" edge="1">
          <mxGeometry relative="1" as="geometry" />
        </mxCell>
        <mxCell id="oHQJAUbpGCtsG2pMAWnH-3" value="Padrão com UI" style="whiteSpace=wrap;html=1;" parent="1" vertex="1">
          <mxGeometry x="500" y="720" width="120" height="60" as="geometry" />
        </mxCell>
        <mxCell id="oHQJAUbpGCtsG2pMAWnH-6" value="Openfeature Operator + FlagD Sidecar" style="whiteSpace=wrap;html=1;" parent="1" vertex="1">
          <mxGeometry x="688" y="630" width="142" height="60" as="geometry" />
        </mxCell>
        <mxCell id="oHQJAUbpGCtsG2pMAWnH-8" value="Openfeature Operator + Flipt" style="whiteSpace=wrap;html=1;" parent="1" vertex="1">
          <mxGeometry x="688" y="720" width="142" height="60" as="geometry" />
        </mxCell>
        <mxCell id="oHQJAUbpGCtsG2pMAWnH-12" value="" style="whiteSpace=wrap;html=1;container=0;fillColor=#dae8fc;strokeColor=#6c8ebf;" parent="1" vertex="1">
          <mxGeometry x="220" y="230" width="170" height="74" as="geometry" />
        </mxCell>
        <mxCell id="oHQJAUbpGCtsG2pMAWnH-32" style="edgeStyle=orthogonalEdgeStyle;rounded=0;orthogonalLoop=1;jettySize=auto;html=1;entryX=0.5;entryY=1;entryDx=0;entryDy=0;" parent="1" source="FQWdSzfLES44VIhiBNn8-14" target="FQWdSzfLES44VIhiBNn8-36" edge="1">
          <mxGeometry relative="1" as="geometry">
            <Array as="points">
              <mxPoint x="305" y="380" />
              <mxPoint x="60" y="380" />
            </Array>
          </mxGeometry>
        </mxCell>
        <mxCell id="oHQJAUbpGCtsG2pMAWnH-33" value="annotation" style="edgeLabel;html=1;align=center;verticalAlign=middle;resizable=0;points=[];" parent="oHQJAUbpGCtsG2pMAWnH-32" vertex="1" connectable="0">
          <mxGeometry x="0.1406" y="-1" relative="1" as="geometry">
            <mxPoint x="33" as="offset" />
          </mxGeometry>
        </mxCell>
        <mxCell id="oHQJAUbpGCtsG2pMAWnH-39" style="edgeStyle=orthogonalEdgeStyle;rounded=0;orthogonalLoop=1;jettySize=auto;html=1;entryX=0.5;entryY=1;entryDx=0;entryDy=0;" parent="1" source="FQWdSzfLES44VIhiBNn8-14" target="FQWdSzfLES44VIhiBNn8-33" edge="1">
          <mxGeometry relative="1" as="geometry" />
        </mxCell>
        <mxCell id="FQWdSzfLES44VIhiBNn8-14" value="Deployment" style="whiteSpace=wrap;html=1;fontSize=12;fillColor=#dae8fc;strokeColor=#6c8ebf;" parent="1" vertex="1">
          <mxGeometry x="220" y="325" width="170" height="36" as="geometry" />
        </mxCell>
        <mxCell id="FQWdSzfLES44VIhiBNn8-32" value="NodeJS App Container" style="whiteSpace=wrap;html=1;fillColor=#dae8fc;strokeColor=#6c8ebf;" parent="1" vertex="1">
          <mxGeometry x="230" y="239" width="150" height="26" as="geometry" />
        </mxCell>
        <mxCell id="FQWdSzfLES44VIhiBNn8-33" value="Flagd Sidecar" style="whiteSpace=wrap;html=1;fillColor=#fff2cc;strokeColor=#d6b656;" parent="1" vertex="1">
          <mxGeometry x="230" y="269" width="150" height="26" as="geometry" />
        </mxCell>
        <mxCell id="oHQJAUbpGCtsG2pMAWnH-13" value="application-pod" style="whiteSpace=wrap;html=1;fontSize=7;fillColor=none;fontColor=#333333;strokeColor=none;fontStyle=1;align=left;" parent="1" vertex="1">
          <mxGeometry x="220" y="210" width="80" height="20" as="geometry" />
        </mxCell>
        <mxCell id="oHQJAUbpGCtsG2pMAWnH-15" value="" style="whiteSpace=wrap;html=1;dashed=1;strokeColor=#E3E3E3;" parent="1" vertex="1">
          <mxGeometry x="865" y="310" width="120" height="63.5" as="geometry" />
        </mxCell>
        <mxCell id="oHQJAUbpGCtsG2pMAWnH-22" style="edgeStyle=orthogonalEdgeStyle;rounded=0;orthogonalLoop=1;jettySize=auto;html=1;entryX=0;entryY=0.5;entryDx=0;entryDy=0;" parent="1" source="oHQJAUbpGCtsG2pMAWnH-16" target="oHQJAUbpGCtsG2pMAWnH-15" edge="1">
          <mxGeometry relative="1" as="geometry" />
        </mxCell>
        <mxCell id="oHQJAUbpGCtsG2pMAWnH-16" value="" style="whiteSpace=wrap;html=1;dashed=1;strokeColor=#E3E3E3;" parent="1" vertex="1">
          <mxGeometry x="691" y="302.5" width="114" height="78.5" as="geometry" />
        </mxCell>
        <mxCell id="oHQJAUbpGCtsG2pMAWnH-17" value="Sources / Providers" style="whiteSpace=wrap;html=1;fontSize=7;fillColor=none;strokeColor=none;fontColor=#333333;fontStyle=1;align=center;" parent="1" vertex="1">
          <mxGeometry x="702.5" y="290" width="91" height="12" as="geometry" />
        </mxCell>
        <mxCell id="oHQJAUbpGCtsG2pMAWnH-18" value="Source 1 - flagd" style="whiteSpace=wrap;html=1;fontSize=9;fillColor=#d5e8d4;strokeColor=#82b366;" parent="1" vertex="1">
          <mxGeometry x="699" y="311" width="98" height="18" as="geometry" />
        </mxCell>
        <mxCell id="oHQJAUbpGCtsG2pMAWnH-19" value="Source 2 - flagd" style="whiteSpace=wrap;html=1;fontSize=9;fillColor=#d5e8d4;strokeColor=#82b366;" parent="1" vertex="1">
          <mxGeometry x="699" y="334" width="98" height="18" as="geometry" />
        </mxCell>
        <mxCell id="oHQJAUbpGCtsG2pMAWnH-20" value="Source 3 - flipt" style="whiteSpace=wrap;html=1;fontSize=9;fillColor=#d5e8d4;strokeColor=#82b366;" parent="1" vertex="1">
          <mxGeometry x="699" y="356" width="98" height="18" as="geometry" />
        </mxCell>
        <mxCell id="oHQJAUbpGCtsG2pMAWnH-21" value="Feature flag specs" style="whiteSpace=wrap;html=1;fontSize=9;fillColor=#e1d5e7;strokeColor=#9673a6;" parent="1" vertex="1">
          <mxGeometry x="871.5" y="331" width="98" height="18" as="geometry" />
        </mxCell>
        <mxCell id="oHQJAUbpGCtsG2pMAWnH-27" value="Feature flag specs" style="whiteSpace=wrap;html=1;fontSize=9;fillColor=#e1d5e7;strokeColor=#9673a6;" parent="1" vertex="1">
          <mxGeometry x="874.5" y="334" width="98" height="18" as="geometry" />
        </mxCell>
        <mxCell id="oHQJAUbpGCtsG2pMAWnH-28" value="Feature flag specs" style="whiteSpace=wrap;html=1;fontSize=9;fillColor=#e1d5e7;strokeColor=#9673a6;" parent="1" vertex="1">
          <mxGeometry x="877.5" y="337" width="98" height="18" as="geometry" />
        </mxCell>
        <mxCell id="oHQJAUbpGCtsG2pMAWnH-29" value="Feature flag specs" style="whiteSpace=wrap;html=1;fontSize=9;fillColor=#e1d5e7;strokeColor=#9673a6;" parent="1" vertex="1">
          <mxGeometry x="880.5" y="340" width="98" height="18" as="geometry" />
        </mxCell>
        <mxCell id="oHQJAUbpGCtsG2pMAWnH-30" value="cluster" style="whiteSpace=wrap;html=1;fontSize=9;fillColor=none;fontColor=#333333;strokeColor=none;fontStyle=1;align=left;" parent="1" vertex="1">
          <mxGeometry x="-38" y="110" width="80" height="20" as="geometry" />
        </mxCell>
      </root>
    </mxGraphModel>
  </diagram>
</mxfile>
